<?xml version="1.0" encoding="UTF-8"?>
<svg id="Calque_1" xmlns="http://www.w3.org/2000/svg" viewBox="0 0 150.25 198.43" >
  <defs>

  </defs>
  <g>
    <polygon fill="#000" points="31.68 149.82 22.01 142.27 22.01 34.77 30.99 32.29 76.77 108.98 121.86 32.32 130.86 34.77 130.86 143.02 121.2 150.09 121.2 52.51 80.96 120.91 72.65 120.94 31.68 52.29 31.68 149.82"/>
    <polygon points="44.77 158.26 36.61 151.82 72.17 32.91 81.43 32.93 116.31 151.93 108.01 157.98 76.75 51.31 44.77 158.26"/>
  </g>
  <path d="M76.46,183.62L9.54,136.26l-.18-110.01L76.44,2.19l66.59,23.91.18,109.99-66.75,47.53ZM12.54,134.7l63.92,45.23,63.75-45.4-.17-106.33L76.44,5.38,12.36,28.36l.17,106.34Z"/>
  <g>
    <path d="M10.98,145.91s.09,0,.12.03l1.32.92s.06.06.07.11,0,.09-.03.12l-5.33,7.65s-.06.06-.11.07-.09,0-.12-.03l-1.32-.92s-.06-.06-.07-.11,0-.09.03-.12l2.18-3.12s.02-.07-.02-.1l-2.5-1.74s-.07-.02-.1.02l-2.18,3.12s-.06.06-.11.07-.09,0-.12-.03l-1.32-.92s-.06-.06-.07-.11,0-.09.03-.12l5.33-7.65s.06-.06.11-.07.09,0,.12.03l1.32.92s.06.06.07.11,0,.09-.03.12l-2.12,3.04s-.02.07.02.1l2.5,1.74s.07.02.1-.02l2.12-3.04s.06-.06.11-.07Z"/>
    <path d="M12.6,158.4c-.28-.55-.39-1.14-.34-1.74.05-.61.28-1.19.67-1.76l1.69-2.42c.39-.56.86-.96,1.41-1.22s1.13-.35,1.75-.27c.62.08,1.22.32,1.8.73.6.42,1.04.9,1.32,1.45s.4,1.13.35,1.73c-.05.6-.27,1.18-.66,1.74l-1.69,2.42c-.39.57-.87.98-1.42,1.25-.55.26-1.14.36-1.75.28-.62-.08-1.22-.32-1.82-.74-.59-.41-1.02-.89-1.3-1.45ZM16.14,158.78c.44-.08.81-.35,1.12-.78l1.74-2.49c.3-.44.42-.88.36-1.32-.07-.44-.31-.81-.73-1.11-.42-.29-.84-.39-1.28-.3-.44.09-.81.36-1.12.79l-1.74,2.49c-.31.44-.42.88-.35,1.32.07.44.31.8.72,1.09.42.29.84.39,1.28.31Z"/>
    <path d="M21.09,164.62s0-.09.03-.12l5.33-7.65s.06-.06.11-.07.09,0,.12.03l1.32.92s.06.06.07.11c0,.04,0,.09-.03.12l-4.43,6.36s-.02.07.02.1l3.7,2.58s.06.06.07.11c0,.04,0,.09-.03.12l-.77,1.1s-.06.06-.11.07c-.04,0-.08,0-.12-.03l-5.22-3.64s-.06-.06-.07-.11Z"/>
    <path d="M30.39,171.1s0-.09.03-.12l5.33-7.65s.06-.06.11-.07c.04,0,.09,0,.12.03l1.32.92s.06.06.07.11,0,.09-.03.12l-5.33,7.65s-.06.06-.11.07-.09,0-.12-.03l-1.32-.92s-.06-.06-.07-.11Z"/>
    <path d="M37.4,175.75c-.32-.51-.48-1.03-.47-1.56,0-.53.17-1.03.5-1.51l.17-.25s.06-.06.11-.07.09,0,.12.03l1.29.9s.06.06.07.11,0,.09-.03.12l-.12.17c-.21.3-.25.65-.11,1.06.14.4.44.77.92,1.1.4.28.76.4,1.07.37.31-.03.56-.17.73-.42.13-.18.17-.38.14-.58-.03-.21-.12-.43-.26-.67-.14-.24-.38-.6-.72-1.08-.38-.53-.69-1-.91-1.43-.22-.43-.35-.88-.37-1.36-.02-.48.13-.95.45-1.41.32-.45.71-.77,1.18-.94.47-.18.98-.21,1.52-.1.54.11,1.08.35,1.63.73.57.4,1.01.86,1.32,1.38.31.52.46,1.05.46,1.59,0,.54-.17,1.05-.51,1.54l-.12.17s-.06.06-.11.07-.09,0-.12-.03l-1.3-.91s-.06-.06-.07-.11c0-.04,0-.08.03-.12l.06-.09c.22-.32.28-.68.17-1.08-.1-.4-.38-.76-.84-1.08-.35-.25-.68-.37-.99-.35-.31.01-.55.15-.73.41-.13.19-.18.39-.16.6.03.21.12.45.28.71.16.26.42.65.78,1.16.4.57.7,1.04.9,1.4.2.36.32.78.36,1.25.04.47-.11.94-.44,1.42-.49.71-1.14,1.09-1.95,1.14s-1.66-.24-2.55-.86c-.6-.42-1.06-.88-1.38-1.39Z"/>
    <path d="M56.66,177.76s0,.09-.03.12l-.77,1.11s-.06.06-.11.07-.09,0-.12-.03l-2.03-1.41s-.07-.02-.1.02l-4.43,6.35s-.06.06-.11.07c-.05,0-.09,0-.12-.03l-1.32-.92s-.06-.06-.07-.11,0-.09.03-.12l4.43-6.35s.02-.07-.02-.1l-1.97-1.37s-.06-.06-.07-.11c0-.04,0-.09.03-.12l.77-1.11s.06-.06.11-.07c.04,0,.08,0,.12.03l5.7,3.97s.06.06.07.11Z"/>
    <path d="M55.12,188.34s0-.09.03-.12l5.33-7.65s.06-.06.11-.07c.04,0,.08,0,.12.03l1.32.92s.06.06.07.11c0,.04,0,.09-.03.12l-5.33,7.65s-.06.06-.11.07c-.04,0-.09,0-.12-.03l-1.32-.92s-.06-.06-.07-.11Z"/>
    <path d="M62.27,193c-.29-.54-.4-1.1-.35-1.69.05-.58.26-1.15.64-1.69l1.82-2.61c.38-.54.83-.94,1.36-1.19.53-.25,1.1-.33,1.7-.24.6.08,1.2.33,1.79.74.58.41,1.02.87,1.31,1.39s.42,1.07.39,1.63c-.03.57-.23,1.11-.59,1.63-.05.07-.12.08-.22.03l-1.38-.84-.02-.02c-.08-.05-.08-.12-.03-.2.28-.4.38-.81.3-1.22-.08-.41-.32-.76-.72-1.04-.41-.28-.82-.39-1.23-.32-.41.07-.76.3-1.04.71l-1.9,2.73c-.27.39-.37.79-.29,1.21.08.41.32.76.73,1.04.4.28.81.38,1.22.31.41-.07.76-.3,1.03-.69.06-.08.13-.09.22-.03l1.28.98s.06.06.07.1,0,.08-.01.11c-.36.52-.81.9-1.33,1.12-.52.23-1.08.3-1.68.21s-1.18-.34-1.76-.74c-.59-.41-1.02-.88-1.31-1.43Z"/>
  </g>
  <g>
    <path d="M90.86,183.4s-.03.08-.07.11l-3.65,2.66s-.04.06-.01.1l1.26,1.73s.06.04.1.02l2.4-1.75s.08-.04.12-.03c.04,0,.08.03.11.07l.79,1.08s.04.08.03.12-.03.08-.07.11l-2.4,1.75s-.04.06-.01.1l2.24,3.08s.04.08.03.12c0,.05-.03.08-.07.11l-1.3.95s-.08.04-.12.03c-.05,0-.08-.03-.11-.07l-5.49-7.54s-.04-.08-.03-.12c0-.04.03-.08.07-.11l5.14-3.75s.08-.04.12-.03.08.03.11.07l.79,1.08s.04.08.03.12Z"/>
    <path d="M99.27,187.16s-.08-.03-.11-.07l-5.49-7.54s-.04-.08-.03-.12c0-.04.03-.08.07-.11l1.3-.95s.08-.04.12-.03.08.03.11.07l5.49,7.54s.04.08.03.12c0,.04-.03.08-.07.11l-1.3.95s-.08.04-.12.03Z"/>
    <path d="M104.8,171.3s.08.03.11.07l.8,1.09s.04.08.03.12-.03.08-.07.11l-2,1.45s-.04.06-.01.1l4.56,6.25s.04.08.03.12c0,.04-.03.08-.07.11l-1.3.95s-.08.04-.12.03c-.05,0-.08-.03-.11-.07l-4.56-6.25s-.06-.04-.1-.02l-1.94,1.41s-.08.04-.12.03c-.04,0-.08-.03-.11-.07l-.8-1.09s-.04-.08-.03-.12c0-.04.03-.08.07-.11l5.62-4.09s.08-.04.12-.03Z"/>
    <path d="M113.15,165.22s.03-.08.07-.11l1.3-.95s.08-.04.12-.03c.04,0,.08.03.11.07l5.49,7.54s.04.08.03.12c0,.05-.03.08-.07.11l-1.26.92c-.07.05-.15.06-.22.03l-6.37-2.67s-.05,0-.06,0c-.01.02,0,.04.01.07l3.45,4.69s.04.08.03.12-.03.08-.07.11l-1.3.95s-.08.04-.12.03c-.05,0-.08-.03-.11-.07l-5.49-7.54s-.04-.08-.03-.12c0-.04.03-.08.07-.11l1.26-.92c.07-.05.15-.06.22-.02l6.34,2.65s.05,0,.06,0c.01-.02,0-.04-.01-.07l-3.42-4.67s-.04-.08-.03-.12Z"/>
    <path d="M125.07,158.48s-.03.08-.07.11l-3.66,2.66s-.04.06-.01.1l1.26,1.73s.06.04.1.02l2.4-1.75s.08-.04.12-.03c.04,0,.08.03.11.07l.79,1.08s.04.08.03.12c0,.04-.03.08-.07.11l-2.4,1.75s-.04.06-.01.1l1.32,1.81s.06.04.1.02l3.66-2.67s.08-.04.12-.03c.04,0,.08.03.11.07l.79,1.08s.04.08.03.12c0,.05-.03.08-.07.11l-5.15,3.75s-.08.04-.12.03c-.04,0-.08-.03-.11-.07l-5.49-7.54s-.04-.08-.03-.12c0-.04.03-.08.07-.11l5.15-3.75s.08-.04.12-.03c.04,0,.08.03.11.07l.79,1.08s.04.08.03.12Z"/>
    <path d="M134.69,161.11c-.58.14-1.13.11-1.62-.06-.5-.18-.92-.5-1.26-.97l-.18-.25s-.04-.08-.03-.12c0-.04.03-.08.07-.11l1.27-.93s.08-.04.12-.03c.04,0,.08.03.11.07l.12.17c.22.3.54.45.96.45.42,0,.87-.17,1.34-.51.39-.29.62-.58.7-.89.07-.31.02-.58-.16-.83-.13-.18-.3-.29-.51-.32-.21-.04-.45-.03-.72.03-.27.06-.69.17-1.25.33-.62.19-1.17.33-1.65.4-.47.07-.94.04-1.4-.1-.46-.14-.85-.43-1.18-.89-.33-.45-.5-.92-.51-1.42-.01-.5.12-.99.4-1.47.28-.48.69-.91,1.22-1.3.56-.41,1.14-.68,1.73-.8.59-.12,1.14-.09,1.65.09.51.18.94.51,1.29.98l.12.17s.04.08.03.12c0,.05-.03.08-.07.11l-1.28.93s-.08.04-.12.03c-.05,0-.08-.03-.11-.07l-.07-.09c-.23-.31-.55-.48-.96-.52-.42-.03-.85.11-1.29.44-.35.25-.57.53-.66.82s-.04.57.15.83c.13.19.31.3.51.34.21.04.46.03.76-.03.3-.07.75-.19,1.35-.36.67-.19,1.21-.32,1.62-.39.41-.07.84-.05,1.3.07.46.12.85.41,1.2.88.51.7.65,1.44.44,2.22-.22.78-.76,1.49-1.64,2.13-.59.43-1.18.72-1.77.85Z"/>
    <path d="M144.11,154.24c-.58.14-1.12.12-1.62-.06s-.92-.5-1.26-.97l-.18-.25s-.04-.08-.03-.12c0-.04.03-.08.07-.11l1.27-.93s.08-.04.12-.03c.04,0,.08.03.11.07l.12.17c.22.3.54.45.96.45.42,0,.87-.16,1.34-.51.39-.29.63-.58.7-.89s.02-.58-.16-.83c-.13-.18-.3-.29-.51-.32s-.45-.03-.72.03c-.27.06-.69.17-1.26.33-.62.19-1.17.32-1.65.4-.48.07-.94.04-1.4-.1-.46-.14-.85-.43-1.18-.89-.33-.45-.49-.92-.51-1.42-.01-.5.12-.99.4-1.47.28-.48.69-.91,1.22-1.3.56-.41,1.14-.68,1.73-.8.59-.12,1.14-.09,1.65.09.51.18.94.51,1.29.98l.12.17s.04.08.03.12c0,.04-.03.08-.07.11l-1.28.93s-.08.04-.12.03c-.05,0-.08-.03-.11-.07l-.06-.09c-.23-.31-.55-.49-.96-.52-.42-.03-.85.11-1.29.44-.35.25-.57.53-.66.82-.09.29-.04.57.15.83.13.19.31.3.51.34.21.04.46.03.76-.03.3-.07.75-.19,1.35-.36.67-.19,1.21-.32,1.62-.39.41-.07.84-.05,1.3.07.46.12.85.41,1.2.88.51.7.65,1.44.44,2.22-.22.78-.76,1.49-1.64,2.13-.59.43-1.18.72-1.77.85Z"/>
  </g>
</svg>